<?xml version="1.0" encoding="UTF-8" standalone="no"?>
<svg width="32px" height="33px" viewBox="0 0 32 33" version="1.1" xmlns="http://www.w3.org/2000/svg" xmlns:xlink="http://www.w3.org/1999/xlink" xmlns:sketch="http://www.bohemiancoding.com/sketch/ns">
    <!-- Generator: Sketch 3.4.2 (15855) - http://www.bohemiancoding.com/sketch -->
    <title>Untitled</title>
    <desc>Created with Sketch.</desc>
    <defs></defs>
    <g id="Page-1" stroke="none" stroke-width="1" fill="none" fill-rule="evenodd" sketch:type="MSPage">
        <path d="M12,28 C12,28.553 11.553,29 11,29 L9,29 C8.447,29 8,28.553 8,28 L8,6 C8,5.448 8.447,5 9,5 L11,5 C11.553,5 12,5.448 12,6 L12,28 L12,28 Z M12,3 L8,3 C6.896,3 6,3.896 6,5 L6,29 C6,30.104 6.896,31 8,31 L12,31 C13.104,31 14,30.104 14,29 L14,5 C14,3.896 13.104,3 12,3 L12,3 Z M24,28 C24,28.553 23.553,29 23,29 L21,29 C20.447,29 20,28.553 20,28 L20,6 C20,5.448 20.447,5 21,5 L23,5 C23.553,5 24,5.448 24,6 L24,28 L24,28 Z M24,3 L20,3 C18.896,3 18,3.896 18,5 L18,29 C18,30.104 18.896,31 20,31 L24,31 C25.104,31 26,30.104 26,29 L26,5 C26,3.896 25.104,3 24,3 L24,3 Z" id="Fill-125" fill="#333333" sketch:type="MSShapeGroup"></path>
    </g>
</svg>